<?xml version="1.0" standalone="no"?>
<!DOCTYPE svg PUBLIC "-//W3C//DTD SVG 20010904//EN"
 "http://www.w3.org/TR/2001/REC-SVG-20010904/DTD/svg10.dtd">
<svg version="1.0" xmlns="http://www.w3.org/2000/svg"
 width="295.000000pt" height="171.000000pt" viewBox="0 0 295.000000 171.000000"
 preserveAspectRatio="xMidYMid meet">
<metadata>
Created by potrace 1.15, written by Peter Selinger 2001-2017
</metadata>
<g transform="translate(0.000000,171.000000) scale(0.100000,-0.100000)"
fill="#000000" stroke="none">
<path d="M700 1655 c-316 -64 -559 -293 -642 -604 -28 -107 -28 -286 1 -396
27 -103 86 -224 145 -300 98 -125 262 -235 426 -287 65 -20 95 -23 230 -23
149 1 159 2 250 33 52 18 124 51 160 72 115 70 116 46 -10 229 -62 89 -114
161 -117 161 -2 0 -23 -13 -46 -29 -156 -107 -351 -100 -505 17 -52 40 -111
130 -134 205 -59 195 35 409 220 499 63 31 73 33 177 33 98 0 116 -3 167 -27
32 -15 72 -38 90 -51 l33 -25 113 161 114 162 -34 28 c-18 16 -74 49 -125 73
-155 76 -349 102 -513 69z"/>
<path d="M1945 1656 c-329 -64 -584 -317 -651 -645 -21 -108 -15 -274 15 -379
70 -244 259 -452 490 -541 108 -41 181 -54 301 -54 224 0 416 80 576 238 277
275 322 696 109 1025 -101 157 -291 293 -480 344 -83 23 -272 29 -360 12z
m328 -423 c85 -40 160 -115 201 -203 29 -60 31 -73 31 -175 0 -103 -2 -114
-32 -177 -19 -40 -53 -89 -83 -118 -201 -201 -551 -140 -673 118 -30 63 -32
74 -32 177 0 99 3 116 27 168 29 61 110 154 164 188 73 45 134 60 234 56 82
-2 104 -7 163 -34z"/>
</g>
</svg>
