<?xml version="1.0" standalone="no"?>
<!DOCTYPE svg PUBLIC "-//W3C//DTD SVG 20010904//EN"
 "http://www.w3.org/TR/2001/REC-SVG-20010904/DTD/svg10.dtd">
<svg version="1.0" xmlns="http://www.w3.org/2000/svg"
 width="283.000000pt" height="283.000000pt" viewBox="0 0 283.000000 283.000000"
 preserveAspectRatio="xMidYMid meet">
<metadata>
Created by potrace 1.15, written by Peter Selinger 2001-2017
</metadata>
<g transform="translate(0.000000,283.000000) scale(0.100000,-0.100000)"
fill="#000000" stroke="none">
<path d="M989 2815 c-359 -72 -637 -345 -727 -716 -12 -46 -24 -105 -27 -130
l-7 -46 -53 -6 c-67 -7 -107 -27 -142 -74 l-28 -36 -3 -331 c-2 -182 0 -345 3
-363 8 -43 50 -92 100 -114 32 -15 66 -19 180 -19 l140 -1 49 -85 c177 -312
473 -594 785 -750 213 -105 374 -144 601 -144 234 0 398 46 553 156 l47 34
138 0 c153 0 186 11 217 69 21 41 22 412 1 452 -11 22 -11 37 0 95 18 94 18
396 0 499 -43 245 -140 494 -271 696 l-45 70 0 135 0 136 -29 29 c-29 29 -31
29 -144 29 l-115 0 -74 62 c-209 176 -454 297 -705 347 -119 25 -337 27 -444
6z m691 -279 c123 -31 204 -64 311 -128 77 -45 87 -54 78 -70 -6 -12 -9 -81
-7 -168 3 -148 3 -150 31 -177 l27 -28 168 -2 167 -1 23 -34 c38 -55 118 -228
146 -313 41 -126 56 -210 63 -346 7 -150 -11 -267 -60 -399 l-32 -85 -146 -5
c-129 -4 -150 -8 -169 -25 -40 -35 -50 -77 -50 -198 l0 -114 -73 -22 c-416
-123 -917 102 -1224 550 l-45 66 21 41 c20 39 21 56 21 372 0 312 -1 333 -20
370 -28 54 -84 90 -154 97 -64 7 -62 0 -24 123 61 195 200 361 378 450 165 82
365 99 570 46z"/>
</g>
</svg>
