<?xml version="1.0" standalone="no"?>
<!DOCTYPE svg PUBLIC "-//W3C//DTD SVG 20010904//EN"
 "http://www.w3.org/TR/2001/REC-SVG-20010904/DTD/svg10.dtd">
<svg version="1.0" xmlns="http://www.w3.org/2000/svg"
 width="249.000000pt" height="300.000000pt" viewBox="0 0 249.000000 300.000000"
 preserveAspectRatio="xMidYMid meet">
<metadata>
Created by potrace 1.15, written by Peter Selinger 2001-2017
</metadata>
<g transform="translate(0.000000,300.000000) scale(0.100000,-0.100000)"
fill="#000000" stroke="none">
<path d="M754 2518 c-264 -266 -496 -505 -516 -533 -96 -136 -161 -277 -206
-444 -23 -86 -25 -115 -26 -286 -1 -199 4 -240 51 -390 124 -397 469 -723 883
-832 128 -34 387 -43 529 -19 515 89 935 523 1012 1045 17 120 6 384 -20 481
-59 221 -176 435 -305 560 l-36 34 -118 -117 c-114 -114 -116 -117 -95 -132
34 -24 120 -146 162 -231 110 -222 128 -466 50 -699 -100 -298 -344 -524 -659
-607 -118 -31 -328 -31 -445 1 -89 24 -220 83 -293 132 -137 94 -282 275 -340
427 -50 129 -65 225 -59 381 7 188 52 326 155 478 22 32 204 222 406 423 l366
364 0 223 c0 123 -3 223 -8 223 -4 0 -224 -217 -488 -482z"/>
<path d="M1620 2499 c-115 -46 -135 -209 -37 -290 29 -23 100 -41 135 -33 158
37 185 245 41 319 -32 17 -102 19 -139 4z"/>
</g>
</svg>
