<?xml version="1.0" standalone="no"?>
<!DOCTYPE svg PUBLIC "-//W3C//DTD SVG 20010904//EN"
 "http://www.w3.org/TR/2001/REC-SVG-20010904/DTD/svg10.dtd">
<svg version="1.0" xmlns="http://www.w3.org/2000/svg"
 width="2000.000000pt" height="2139.000000pt" viewBox="0 0 2000.000000 2139.000000"
 preserveAspectRatio="xMidYMid meet">
<metadata>
Created by potrace 1.15, written by Peter Selinger 2001-2017
</metadata>
<g transform="translate(0.000000,2139.000000) scale(0.100000,-0.100000)"
fill="#000000" stroke="none">
<path d="M5683 18107 l-5683 -3282 0 -1651 0 -1650 1367 -790 c752 -434 1392
-803 1423 -821 l56 -32 1420 819 1419 820 3 -4928 2 -4927 1422 -820 c782
-451 1426 -819 1432 -817 6 2 649 371 1428 820 l1417 817 1 1645 0 1645 1423
821 1422 821 0 1648 0 1648 -1422 821 -1423 821 0 1634 c0 1342 2 1632 13
1628 7 -3 1282 -737 2832 -1632 1550 -896 2826 -1630 2835 -1632 9 -2 655 365
1435 815 l1420 820 2 1648 3 1649 -4262 2460 c-2344 1353 -4271 2461 -4282
2462 -12 1 -2463 -1409 -5703 -3280z"/>
</g>
</svg>
